<svg width="95" height="30" viewBox="0 0 95 30" fill="none" xmlns="http://www.w3.org/2000/svg">
<path d="M0.849609 1.5625H8.12988L8.33496 1.66504C8.12988 2.05566 8.02734 2.46582 8.02734 2.89551C8.0957 3.03223 8.12988 3.13477 8.12988 3.20312C7.99316 3.42773 7.9248 3.63281 7.9248 3.81836L6.89941 3.71582C6.66504 4.12598 6.35742 4.33105 5.97656 4.33105H5.66895V4.53613C5.7373 4.53613 5.83984 4.57031 5.97656 4.63867C6.34766 4.50195 6.68945 4.29688 7.00195 4.02344H7.30957L7.71973 4.33105H7.82227C8.0957 4.19434 8.23242 3.98926 8.23242 3.71582H8.33496C8.50098 3.71582 8.6377 4.12598 8.74512 4.94629C8.81348 4.94629 8.84766 4.98047 8.84766 5.04883C8.71094 5.21484 8.64258 5.35156 8.64258 5.45898C8.76953 5.82031 8.94043 6.53809 9.15527 7.6123C9.15527 8.40332 8.47168 9.39453 7.10449 10.5859C6.64551 11.1328 5.75684 11.6797 4.43848 12.2266C4.43848 12.3242 4.19922 12.5635 3.7207 12.9443C3.41797 12.9443 2.93945 12.7051 2.28516 12.2266H2.08008V12.3291L2.3877 12.8418H2.28516C1.91406 12.7734 1.60645 12.7393 1.3623 12.7393V13.0469C3.13965 13.4082 4.02832 13.7842 4.02832 14.1748C4.02832 15.3662 3.75488 16.1523 3.20801 16.5332C2.2998 16.3281 1.54785 16.2256 0.952148 16.2256C0.952148 16.3623 0.883789 16.4307 0.74707 16.4307H0.541992V1.87012C0.541992 1.77246 0.644531 1.66992 0.849609 1.5625ZM10.2832 1.5625C10.5566 1.63086 10.6934 1.76758 10.6934 1.97266L10.5908 2.17773L10.6934 2.38281C10.625 2.65625 10.5908 2.89551 10.5908 3.10059C11.2061 3.87207 11.5137 4.52148 11.5137 5.04883V5.35645H10.8984V5.45898L11.7188 6.48438C11.7188 6.83594 11.377 7.28027 10.6934 7.81738C10.7617 7.81738 10.7959 7.85156 10.7959 7.91992C10.8643 7.91992 11.1035 7.74902 11.5137 7.40723C11.6504 7.42676 11.7188 7.49512 11.7188 7.6123V9.45801C11.7188 9.59473 11.5479 9.9707 11.2061 10.5859H11.3086L11.5137 10.4834C11.5137 10.5518 11.5479 10.5859 11.6162 10.5859L11.5137 10.791V12.5342C11.5137 13.042 11.1719 13.5205 10.4883 13.9697C9.73633 15.4248 9.01855 17.2021 8.33496 19.3018C8.19824 19.3213 8.12988 19.3896 8.12988 19.5068V19.6094L8.23242 20.3271C7.61719 20.5029 7.24121 20.708 7.10449 20.9424V21.1475H7.20703C7.89062 20.9424 8.33496 20.8398 8.54004 20.8398C8.72559 21.2988 8.99902 21.7773 9.36035 22.2754V22.4805C8.9502 23.8086 8.74512 24.5947 8.74512 24.8389H8.33496C7.99316 24.8389 7.44629 24.3604 6.69434 23.4033C6.57715 23.335 6.44043 23.3008 6.28418 23.3008H6.18164C5.63477 23.3887 5.36133 23.5596 5.36133 23.8135H5.05371C4.98535 23.2666 4.84863 22.7539 4.64355 22.2754L4.74609 21.6602V21.5576C4.74609 21.4893 4.60938 21.0791 4.33594 20.3271V20.2246L4.54102 19.917V19.8145C4.13086 18.75 3.92578 18.0664 3.92578 17.7637C4.16992 17.7637 4.81934 17.4902 5.87402 16.9434C5.99121 16.875 6.12793 16.8408 6.28418 16.8408V16.7383C5.94238 16.7383 5.77148 16.7041 5.77148 16.6357C5.54688 16.7725 5.3418 16.8408 5.15625 16.8408V16.6357L5.46387 16.2256C5.46387 16.1572 5.42969 16.123 5.36133 16.123C5.60547 15.166 5.77637 14.6875 5.87402 14.6875C5.66895 14.0332 5.56641 13.5547 5.56641 13.252C5.56641 12.8711 6.5918 11.8799 8.64258 10.2783C9.24805 9.98535 9.69238 9.47266 9.97559 8.74023H10.3857C10.1123 8.14453 9.97559 7.76855 9.97559 7.6123C9.97559 7.52441 10.0098 7.18262 10.0781 6.58691C9.87305 6.58691 9.77051 6.14258 9.77051 5.25391V3.61328C9.77051 3.54492 9.83887 3.27148 9.97559 2.79297C9.77051 2.79297 9.66797 2.72461 9.66797 2.58789V2.48535C9.77539 1.87012 9.98047 1.5625 10.2832 1.5625ZM11.4111 1.66504H11.5137C11.6504 1.68457 11.7188 1.75293 11.7188 1.87012V2.28027H11.6162C11.5674 2.28027 11.4648 2.17773 11.3086 1.97266C11.377 1.83594 11.4111 1.7334 11.4111 1.66504ZM11.001 2.48535H11.1035C11.4844 2.84668 11.6895 3.18848 11.7188 3.51074L11.5137 3.61328C11.2402 3.07617 11.0693 2.7002 11.001 2.48535ZM11.5137 13.7646C11.6504 13.7842 11.7188 13.8525 11.7188 13.9697V14.0723C11.7188 14.4824 11.6846 14.6875 11.6162 14.6875L11.7188 15.7129V24.8389C11.7188 24.9463 11.582 25.083 11.3086 25.249H11.1035C10.4395 24.751 10.0977 24.375 10.0781 24.1211L10.1807 23.916C10.0635 23.5742 9.92676 22.9932 9.77051 22.1729C9.90723 21.9189 9.97559 21.6455 9.97559 21.3525V21.25C9.81934 21.25 9.7168 21.4209 9.66797 21.7627C9.41406 21.7627 9.07227 21.1133 8.64258 19.8145V19.7119C9.39453 17.4072 9.97559 15.9033 10.3857 15.2002H10.4883V15.3027C10.4492 15.918 10.3809 16.2256 10.2832 16.2256C10.3516 16.3623 10.3857 16.4648 10.3857 16.5332H10.5908V16.0205C10.6104 15.8838 10.6787 15.8154 10.7959 15.8154C10.8838 16.2256 10.9863 16.4307 11.1035 16.4307V16.3281L10.8984 15.6104C10.8984 15.5029 11.0693 15.2637 11.4111 14.8926H11.1035V14.585C11.377 14.1943 11.5137 13.9209 11.5137 13.7646ZM7.41211 17.3535V17.4561H7.71973V17.1484H7.61719C7.48047 17.168 7.41211 17.2363 7.41211 17.3535ZM2.08008 17.1484H2.3877C3.13965 17.1484 3.51562 17.4561 3.51562 18.0713C3.62305 18.1787 3.82812 18.7256 4.13086 19.7119L3.92578 20.4297V20.5322L4.43848 21.4551L4.33594 21.9678L5.05371 25.0439C4.2334 26.7529 3.82324 27.7783 3.82324 28.1201V28.6328H4.02832V28.3252C4.30176 27.1631 4.71191 26.0693 5.25879 25.0439C5.25879 24.1943 5.63477 23.7158 6.38672 23.6084C6.64062 23.6084 7.08496 24.0869 7.71973 25.0439C7.78809 25.0439 7.89062 25.0781 8.02734 25.1465L8.54004 25.0439V25.1465C8.08105 27.8223 7.6709 29.2578 7.30957 29.4531H4.33594C4.26758 29.4531 4.2334 29.4189 4.2334 29.3506L4.02832 29.4531H0.849609C0.751953 29.4531 0.649414 29.3506 0.541992 29.1455V18.8916C1.49902 17.7295 2.01172 17.1484 2.08008 17.1484ZM9.46289 23.1982H9.66797C9.66797 24.4482 9.97559 25.166 10.5908 25.3516C10.6592 25.6934 10.7275 25.8643 10.7959 25.8643C10.7275 26.0693 10.6592 26.1719 10.5908 26.1719C10.4248 26.1719 9.94629 25.6592 9.15527 24.6338L9.46289 23.1982ZM9.05273 25.3516H9.25781C10.1953 26.1133 10.6738 26.6602 10.6934 26.9922C10.8887 26.9922 11.1279 27.334 11.4111 28.0176H11.5137C11.4258 28.9746 11.2891 29.4531 11.1035 29.4531H9.25781C8.89648 29.4531 8.52051 29.2139 8.12988 28.7354C8.33496 28.3936 8.4375 28.1201 8.4375 27.915V27.8125C8.4375 27.7441 8.40332 27.71 8.33496 27.71C8.6377 26.1377 8.87695 25.3516 9.05273 25.3516ZM11.5137 25.3516L11.7188 25.6592V27.1973C11.7188 27.334 11.6504 27.4023 11.5137 27.4023C11.377 26.9922 11.2402 26.4453 11.1035 25.7617C11.1523 25.5566 11.2891 25.4199 11.5137 25.3516ZM38.6221 0.0976562C38.7393 0.166016 38.876 0.200195 39.0322 0.200195V0.507812C38.7881 0.957031 38.583 1.57227 38.417 2.35352L39.5449 5.12207C39.4766 5.61035 39.4424 5.88379 39.4424 5.94238C39.5791 6.56738 39.6475 6.94336 39.6475 7.07031H39.5449C38.8027 6.93359 38.0166 6.86523 37.1865 6.86523C34.2178 6.86523 32.167 8.2666 31.0342 11.0693C30.7803 11.7334 30.541 12.6221 30.3164 13.7354H30.1113V13.8379L30.4189 14.248C30.4189 14.4531 30.3848 14.6924 30.3164 14.9658C30.3848 15.415 30.4189 15.8594 30.4189 16.2988V16.8115C30.3018 16.8115 30.0967 16.3672 29.8037 15.4785C29.7061 15.4785 29.5352 15.2734 29.291 14.8633C29.291 14.5215 29.3936 14.3506 29.5986 14.3506V14.1455C29.5986 14.0088 29.4619 13.9404 29.1885 13.9404V13.1201C28.7393 11.6943 28.3975 10.874 28.1631 10.6592C28.1631 10.3857 28.3682 9.97559 28.7783 9.42871C28.7783 9.06738 28.915 8.75977 29.1885 8.50586C28.915 8.16406 28.7783 7.61719 28.7783 6.86523C28.9443 6.86523 29.2178 6.45508 29.5986 5.63477C29.8916 5.08789 30.4043 4.81445 31.1367 4.81445C31.4004 4.81445 31.5713 4.5752 31.6494 4.09668C32.001 3.75488 32.2061 3.58398 32.2646 3.58398C32.4014 3.51562 32.5039 3.48145 32.5723 3.48145V3.37891H32.2646C31.708 3.37891 31.2295 3.78906 30.8291 4.60938C29.9404 4.60938 29.4961 4.84863 29.4961 5.32715C29.3301 5.32715 28.9883 5.77148 28.4707 6.66016H28.2656C28.2656 6.40625 27.377 6.20117 25.5996 6.04492L24.3691 5.42969L24.2666 4.91699V4.81445C24.3838 4.6582 24.4863 4.28223 24.5742 3.68652L24.4717 3.48145C24.6572 2.79785 24.999 2.45605 25.4971 2.45605L25.8047 2.66113H25.9072C25.9072 2.20215 26.1807 1.89453 26.7275 1.73828C29.7451 0.644531 33.71 0.0976562 38.6221 0.0976562ZM39.75 0.200195C44.75 0.200195 48.7148 1.25977 51.6445 3.37891L51.542 3.78906C51.6787 4.61914 51.8496 5.30273 52.0547 5.83984C51.9863 5.97656 51.9521 6.0791 51.9521 6.14746C52.0596 6.14746 52.2988 6.31836 52.6699 6.66016H52.7725V6.35254C52.46 6.35254 52.1865 5.60059 51.9521 4.09668C51.8838 4.09668 51.8496 4.0625 51.8496 3.99414L52.0547 3.8916H52.1572C53.9639 5.34668 55.2285 7.5 55.9512 10.3516L56.2588 11.7871L55.9512 11.9922H54.208C54.208 11.7871 54.1396 11.6846 54.0029 11.6846C53.9346 11.8896 53.7295 11.9922 53.3877 11.9922H44.6719C44.2324 11.9922 43.8906 11.4453 43.6465 10.3516C43.3926 9.7168 42.6064 8.72559 41.2881 7.37793L40.6729 6.45508C40.7412 6.08398 40.7754 5.77637 40.7754 5.53223L40.0576 4.81445C40.2627 4.08203 40.4336 3.19336 40.5703 2.14844C40.5703 1.85547 40.2285 1.30859 39.5449 0.507812V0.302734L39.75 0.200195ZM39.3398 0.917969C39.8867 1.44531 40.1602 1.85547 40.1602 2.14844C40.0918 2.69531 39.9893 2.96875 39.8525 2.96875L39.9551 3.48145V3.58398L39.75 4.30176H39.6475C39.374 4.30176 39.1348 3.5498 38.9297 2.0459C38.998 1.29395 39.1348 0.917969 39.3398 0.917969ZM33.3926 1.84082V2.35352L32.8799 3.07129H32.9824C33.3926 3.07129 33.5977 2.69531 33.5977 1.94336V1.84082H33.3926ZM23.4463 3.68652H23.6514V3.78906C23.2607 4.4043 23.0215 4.71191 22.9336 4.71191C22.9336 4.78027 22.9678 4.81445 23.0361 4.81445L22.9336 5.32715C23.1387 5.69824 23.2412 6.00586 23.2412 6.25C23.1436 6.25 22.9043 6.48926 22.5234 6.96777V7.17285L22.626 7.89062H22.8311V7.78809L22.7285 7.58301C22.7285 7.3291 23.002 6.9873 23.5488 6.55762C24.0859 6.55762 24.4619 7.44629 24.6768 9.22363C24.6768 10.2686 24.2666 11.3965 23.4463 12.6074V12.8125H23.5488C24.5059 11.8555 24.9844 10.5908 24.9844 9.01855C25.0527 9.01855 25.0869 8.91602 25.0869 8.71094C24.8818 8.16406 24.7793 7.82227 24.7793 7.68555L24.9844 7.58301C25.3848 8.19824 25.624 8.50586 25.7021 8.50586C25.8096 8.50586 26.1172 8.4375 26.625 8.30078C27.1035 8.48633 27.3428 8.93066 27.3428 9.63379V9.94141C27.3428 10.1074 27.2744 10.415 27.1377 10.8643L27.2402 11.582L27.0352 12.0947C27.0352 12.6123 27.377 13.4668 28.0605 14.6582H28.1631L28.3682 14.5557C28.3682 14.624 28.4023 14.6582 28.4707 14.6582L28.3682 14.8633V15.1709C28.8662 15.1709 29.1738 15.5127 29.291 16.1963C29.7012 16.5967 29.9062 17.1436 29.9062 17.8369C30.3555 18.5205 30.6631 18.8623 30.8291 18.8623C30.8291 19.6826 30.4873 20.0928 29.8037 20.0928C29.5303 20.3271 29.3936 20.5664 29.3936 20.8105L29.5986 21.1182L29.291 21.6309V22.2461C29.7012 22.7246 29.9062 23.2373 29.9062 23.7842L29.8037 24.3994L30.2139 24.0918C30.624 24.3164 30.8291 24.5557 30.8291 24.8096L30.624 27.2705C30.7607 27.29 30.8291 27.3584 30.8291 27.4756C30.7314 28.5303 30.5605 29.1113 30.3164 29.2188C28.0312 29.0039 25.6045 27.9443 23.0361 26.04C20.0283 23.1104 18.5244 19.3848 18.5244 14.8633C18.5244 10.1562 20.165 6.43066 23.4463 3.68652ZM39.9551 5.32715C40.2969 5.32715 40.502 5.46387 40.5703 5.7373L40.4678 6.35254V6.55762C40.7412 6.85059 40.8779 7.12402 40.8779 7.37793V7.48047C40.1943 7.48047 39.8525 7.03613 39.8525 6.14746V5.83984L39.9551 5.32715ZM52.4648 7.07031C52.4648 7.39258 52.6699 7.66602 53.0801 7.89062C53.2168 8.11523 53.2852 8.32031 53.2852 8.50586V8.71094L53.0801 9.01855V9.12109C53.2168 9.12109 53.2852 9.15527 53.2852 9.22363C53.4219 9.15527 53.5244 9.12109 53.5928 9.12109V8.40332C53.4561 8.40332 53.3193 8.16406 53.1826 7.68555C53.1143 7.68555 52.9092 7.48047 52.5674 7.07031H52.4648ZM23.3438 9.12109V9.22363C23.5488 9.52637 23.6514 9.7998 23.6514 10.0439H23.8564C23.8564 9.8877 23.7197 9.58008 23.4463 9.12109H23.3438ZM29.9062 9.32617V9.42871C30.0723 9.90723 30.209 10.1465 30.3164 10.1465H30.4189C30.4189 9.77539 30.248 9.50195 29.9062 9.32617ZM53.6953 9.73633V9.94141C53.9004 10.1953 54.0029 10.4346 54.0029 10.6592H54.208V10.5566C53.9736 10.0098 53.8027 9.73633 53.6953 9.73633ZM23.6514 10.1465L23.5488 10.6592H23.8564L23.7539 10.1465H23.6514ZM52.9775 10.4541V10.6592C53.1143 10.8838 53.1826 11.0547 53.1826 11.1719H53.3877C53.1826 10.8301 53.0801 10.5908 53.0801 10.4541H52.9775ZM28.0605 11.4795C28.2363 11.6455 28.5098 12.2607 28.8809 13.3252V13.4277H28.7783C28.2998 12.8711 28.0605 12.29 28.0605 11.6846V11.4795ZM28.2656 17.3242C28.2852 17.4609 28.3535 17.5293 28.4707 17.5293L28.5732 17.3242V17.1191H28.4707C28.334 17.1387 28.2656 17.207 28.2656 17.3242ZM30.3164 17.3242H30.5215V17.6318H30.4189C30.4189 17.5635 30.3848 17.4609 30.3164 17.3242ZM44.7744 18.1445C44.9795 18.1445 45.082 18.1787 45.082 18.2471L45.7998 18.1445H50.209C50.4336 18.1445 50.6045 18.1787 50.7217 18.2471L51.3369 18.1445H56.2588L56.5664 18.3496C55.9805 21.543 54.9209 23.9014 53.3877 25.4248C51.8154 27.1826 49.3887 28.4131 46.1074 29.1162C44.1641 29.5947 42.6602 29.834 41.5957 29.834C40.4727 29.6875 39.5498 29.3115 38.8271 28.7061C38.5537 28.6377 38.417 28.4326 38.417 28.0908V27.9883C38.4561 27.5781 38.5586 27.373 38.7246 27.373C39.3691 27.5781 39.8818 27.8857 40.2627 28.2959L40.7754 28.1934V27.9883C40.5996 27.9883 40.1553 27.8174 39.4424 27.4756L38.9297 27.2705V26.9629L39.1348 26.6553V26.5527C38.9297 26.2891 38.8271 25.9814 38.8271 25.6299V25.3223C38.8271 23.6133 39.1348 22.7588 39.75 22.7588C40.6387 22.7588 41.6982 22.1094 42.9287 20.8105C43.6611 19.0332 44.2764 18.1445 44.7744 18.1445ZM31.3418 19.7852C32.2988 21.1523 33.7002 22.1436 35.5459 22.7588C35.751 23.4033 35.8535 24.0186 35.8535 24.6045C35.7363 24.6729 35.5654 24.707 35.3408 24.707V24.9121C35.8193 24.9121 36.2295 25.3906 36.5713 26.3477C36.2295 27.3828 36.0586 27.998 36.0586 28.1934V28.501L35.5459 28.6035H35.0332C33.8125 28.252 32.9922 27.9102 32.5723 27.5781L32.6748 26.8604V26.7578C32.333 26.582 32.0254 26.1035 31.752 25.3223C31.5469 25.3223 31.4443 25.2539 31.4443 25.1172H31.6494C32.3916 25.459 32.8018 25.6299 32.8799 25.6299H33.085V25.5273C32.7041 25.1855 32.123 24.8096 31.3418 24.3994C31.3418 23.9404 31.0684 23.1543 30.5215 22.041H30.7266C30.8633 22.1094 30.9658 22.1436 31.0342 22.1436L31.1367 21.9385C31 21.7139 30.9316 21.5088 30.9316 21.3232V20.6055C31.0195 20.0977 31.1562 19.8242 31.3418 19.7852ZM30.1113 21.4258H30.3164V21.5283C30.3164 21.626 30.2139 21.7285 30.0088 21.8359L29.9062 21.6309C29.9258 21.4941 29.9941 21.4258 30.1113 21.4258ZM30.1113 22.1436L30.3164 22.6562L30.1113 22.7588C29.9746 22.5342 29.9062 22.3633 29.9062 22.2461L30.1113 22.1436ZM36.1611 22.8613C36.5029 22.8809 36.6738 22.9492 36.6738 23.0664C36.8789 22.998 36.9814 22.9297 36.9814 22.8613L37.1865 22.9639H38.417C38.5537 22.9639 38.6221 23.0664 38.6221 23.2715C38.6221 23.5449 38.5537 23.9893 38.417 24.6045L38.0068 24.2969V24.8096L38.5195 25.6299L38.417 25.835L38.5195 26.3477C38.1777 27.1875 38.0068 27.8027 38.0068 28.1934L38.1094 28.7061C37.084 28.501 36.5713 28.2959 36.5713 28.0908L37.1865 26.04C36.708 25.542 36.4688 25.1318 36.4688 24.8096C36.5664 24.8096 36.6689 24.707 36.7764 24.502V24.2969C36.3662 24.2969 36.1611 23.9209 36.1611 23.1689V22.8613ZM30.4189 23.1689H30.624C30.8291 23.2373 30.9316 23.4424 30.9316 23.7842C30.9316 23.9209 30.8633 23.9893 30.7266 23.9893C30.4531 23.8525 30.3164 23.6816 30.3164 23.4766C30.3848 23.3398 30.4189 23.2373 30.4189 23.1689ZM33.9053 24.502C33.9053 24.6582 33.8711 24.7949 33.8027 24.9121C33.9395 25.2246 34.0762 25.3955 34.2129 25.4248H34.5205C34.2471 25.1416 34.1104 24.834 34.1104 24.502H33.9053ZM29.8037 24.6045V25.0146H29.9062V24.6045H29.8037ZM31.2393 25.7324H31.4443C31.5518 25.8203 31.8936 26.5381 32.4697 27.8857C33.6904 28.3936 34.4766 28.7695 34.8281 29.0137L35.5459 28.9111H35.751V29.0137C35.458 29.2383 35.2871 29.5117 35.2383 29.834C32.6211 29.834 31.2539 29.6289 31.1367 29.2188C31 28.9941 30.9316 28.7891 30.9316 28.6035C31.1367 28.252 31.2393 27.9102 31.2393 27.5781C31.1025 27.3535 31.0342 27.1484 31.0342 26.9629V25.9375C31.0537 25.8008 31.1221 25.7324 31.2393 25.7324ZM40.9805 28.0908V28.1934H41.083C41.4346 28.1934 41.6396 28.0908 41.6982 27.8857V27.7832H41.5957C41.1855 27.8516 40.9805 27.9541 40.9805 28.0908ZM36.8789 28.8086H36.9814C38.6904 29.0723 39.5449 29.4141 39.5449 29.834L39.3398 29.9365H37.9043C37.543 29.9365 37.2012 29.5605 36.8789 28.8086ZM36.2637 29.4238H36.5713C36.6689 29.4238 36.7715 29.5264 36.8789 29.7314V29.9365C36.3711 29.9365 36.0977 29.834 36.0586 29.6289C36.0781 29.4922 36.1465 29.4238 36.2637 29.4238ZM63.4453 1.40137H70.418C70.5547 1.4209 70.623 1.48926 70.623 1.60645C70.457 2.3584 70.252 2.73438 70.0078 2.73438C69.9395 2.73438 69.8369 2.7002 69.7002 2.63184L69.1875 2.73438L68.6748 2.63184L68.5723 2.83691C68.7383 2.97363 68.875 3.04199 68.9824 3.04199V3.14453L68.2646 3.65723V3.75977C68.5186 3.75977 69.3389 3.58887 70.7256 3.24707C71.5459 3.6377 71.9561 4.45801 71.9561 5.70801C70.54 6.29395 69.7539 6.7041 69.5977 6.93848C69.5293 7.42676 69.4951 7.7002 69.4951 7.75879C69.4951 7.96387 69.5635 8.2373 69.7002 8.5791C69.5244 9.64355 69.1143 10.6006 68.4697 11.4502C67.4736 12.4072 66.8584 12.8857 66.624 12.8857L66.8291 13.2959L66.7266 13.501C67.0684 14.9561 67.2734 16.2207 67.3418 17.2949C66.9316 18.3789 66.0088 19.2334 64.5732 19.8584C64.3389 20.9521 64.0996 21.499 63.8555 21.499C63.8066 21.499 63.6016 21.5332 63.2402 21.6016L63.1377 21.3965V1.70898C63.1377 1.61133 63.2402 1.50879 63.4453 1.40137ZM72.3662 1.40137H76.5703C76.8242 1.40137 77.166 2.97363 77.5957 6.11816C77.7031 6.11816 77.8398 6.25488 78.0059 6.52832L77.3906 7.45117V7.86133H77.4932C77.9717 7.24609 78.3818 6.93848 78.7236 6.93848C79.6709 7.42676 80.1494 7.73437 80.1592 7.86133V7.96387C80.1592 8.10059 80.0908 8.16895 79.9541 8.16895H75.1348C74.4414 8.00293 73.7578 7.45605 73.084 6.52832L74.417 4.78516L74.5195 4.58008V4.47754C74.207 4.53613 73.9336 4.74121 73.6992 5.09277H73.4941V4.99023C73.4941 3.84766 73.0156 2.78809 72.0586 1.81152V1.70898C72.0586 1.61133 72.1611 1.50879 72.3662 1.40137ZM78.6211 1.40137H85.2861C85.7061 1.40137 86.2188 1.81152 86.8242 2.63184C86.9414 2.7002 87.0781 2.73438 87.2344 2.73438L87.8496 2.32422C88.123 2.46094 88.2598 2.63184 88.2598 2.83691C88.123 3.12012 87.9863 3.59863 87.8496 4.27246V4.375C87.9863 4.54102 88.0547 4.67773 88.0547 4.78516C87.9863 5.14648 87.9521 5.35156 87.9521 5.40039C88.0205 5.60547 88.0889 5.70801 88.1572 5.70801C87.8154 6.32324 87.6445 6.66504 87.6445 6.7334H87.0293V6.83594C87.0293 7.31445 87.3369 7.69043 87.9521 7.96387C87.9521 8.10059 87.8838 8.16895 87.7471 8.16895H86.7217C86.585 8.16895 86.5166 8.10059 86.5166 7.96387V7.45117H86.3115C86.3115 7.65625 86.2773 7.89551 86.209 8.16895H84.2607L83.748 7.75879H83.6455C83.6455 8.03223 83.543 8.16895 83.3379 8.16895H81.4922C80.8281 8.16895 80.3496 7.58789 80.0566 6.42578H79.9541V6.7334C80.0225 6.87012 80.0566 6.97266 80.0566 7.04102L79.8516 7.14355C78.5527 6.52832 77.9033 5.77637 77.9033 4.8877C77.4932 3.17871 77.2881 2.1875 77.2881 1.91406V1.50391H77.3906C77.4395 1.50391 77.6104 1.74316 77.9033 2.22168H78.0059L77.9033 1.50391L78.416 1.60645C78.4355 1.46973 78.5039 1.40137 78.6211 1.40137ZM86.6191 1.40137H87.2344C87.3711 1.4209 87.4395 1.48926 87.4395 1.60645C87.4395 1.97754 87.3027 2.2168 87.0293 2.32422H86.9268C86.8486 2.32422 86.6777 2.08496 86.4141 1.60645C86.4336 1.46973 86.502 1.40137 86.6191 1.40137ZM88.6699 1.40137H92.3613C92.8398 1.40137 93.0791 1.6748 93.0791 2.22168H93.2842V1.81152L93.1816 1.60645L93.3867 1.50391C93.5234 1.52344 93.5918 1.5918 93.5918 1.70898V2.0166L93.3867 2.32422C93.5234 2.57812 93.5918 2.85156 93.5918 3.14453V7.86133C93.5918 7.95898 93.4893 8.06152 93.2842 8.16895H90.9258C90.8574 8.16895 90.584 8.10059 90.1055 7.96387C89.8809 8.10059 89.6758 8.16895 89.4902 8.16895H88.7725C88.5186 8.16895 88.1768 7.96387 87.7471 7.55371H87.6445V7.45117C87.6445 7.20703 87.918 6.72852 88.4648 6.01562C88.4648 5.94727 88.3965 5.67383 88.2598 5.19531V4.47754C88.2598 4.40918 88.2256 4.375 88.1572 4.375C88.3232 3.59375 88.5283 3.0127 88.7725 2.63184C88.7041 2.3584 88.5332 2.22168 88.2598 2.22168V2.11914C88.4453 1.64062 88.582 1.40137 88.6699 1.40137ZM75.75 4.16992V4.27246C75.7695 4.40918 75.8379 4.47754 75.9551 4.47754H76.0576V4.16992H75.75ZM74.8271 4.375V4.58008H75.1348V4.375H74.8271ZM72.4688 6.7334C73.4062 7.55371 73.9531 7.96387 74.1094 7.96387V11.4502H76.5703C77.3809 11.4502 77.8252 12.168 77.9033 13.6035L78.1084 13.501C78.0498 12.6611 77.8789 12.0117 77.5957 11.5527L77.8008 11.4502H80.877C81.1016 11.4502 81.4775 12.3389 82.0049 14.1162C82.0732 14.585 82.1416 14.8926 82.21 15.0391L82.0049 15.4492L82.6201 17.3975C82.4834 17.6221 82.415 17.793 82.415 17.9102C82.4834 18.0469 82.5176 18.1494 82.5176 18.2178L82.3125 18.3203H81.1846C80.7061 18.3203 80.4326 18.2861 80.3643 18.2178C79.8955 18.2861 79.5195 18.3203 79.2363 18.3203H74.1094V22.3193H74.8271V22.627C74.0752 22.7246 73.6992 22.8271 73.6992 22.9346L73.2891 22.7295C72.6934 22.7295 72.2148 22.9346 71.8535 23.3447H71.751C71.4873 23.1396 71.1797 23.0371 70.8281 23.0371H70.623C69.4219 23.7207 68.7383 24.0625 68.5723 24.0625C68.2598 23.5059 67.542 22.8906 66.4189 22.2168L65.5986 21.2939V20.7812C66.3506 19.7559 66.8975 19.0723 67.2393 18.7305L67.752 18.6279C67.957 18.8818 68.0596 19.1211 68.0596 19.3457H68.1621C68.2988 19.3457 68.3672 19.2773 68.3672 19.1406C68.3672 18.916 68.2646 18.6768 68.0596 18.4229V18.0127C69.1143 18.4229 69.6611 18.6279 69.7002 18.6279C69.9346 18.4912 70.2764 18.3887 70.7256 18.3203V18.2178H70.623L69.7002 18.3203C68.6748 18.1641 68.1621 17.7539 68.1621 17.0898C68.1621 16.8164 68.0938 16.6797 67.957 16.6797C68.0254 16.582 68.0938 16.2061 68.1621 15.5518C67.9668 15.5518 67.7275 14.9707 67.4443 13.8086C67.4443 13.2129 68.0596 12.4268 69.29 11.4502C69.6025 10.7666 69.876 10.4248 70.1104 10.4248V10.1172C70.7256 8.97461 71.0332 8.01758 71.0332 7.24609C71.0332 6.9043 71.5117 6.7334 72.4688 6.7334ZM85.7988 7.24609C85.8184 7.38281 85.8867 7.45117 86.0039 7.45117C86.1406 7.38281 86.2432 7.34863 86.3115 7.34863V7.14355C86.3115 7.00684 86.2432 6.93848 86.1064 6.93848C86.0088 6.93848 85.9062 7.04102 85.7988 7.24609ZM81.7998 11.4502H84.5684L85.4912 12.7832C86.7412 12.7832 87.459 13.2617 87.6445 14.2188C88.0742 14.2188 88.5186 14.6631 88.9775 15.5518L89.0801 15.3467V15.2441C87.8008 13.6035 87.0488 12.7832 86.8242 12.7832L85.7988 12.4756H85.4912C85.2861 11.8896 85.1836 11.582 85.1836 11.5527L85.3887 11.4502H89.5928C90.0029 11.4502 90.208 11.6553 90.208 12.0654V18.0127C90.208 18.1104 90.1055 18.2129 89.9004 18.3203H87.8496C87.3711 18.3203 86.6875 17.4316 85.7988 15.6543C84.7246 14.4922 83.6309 13.9111 82.5176 13.9111C81.9023 12.7197 81.5947 11.9336 81.5947 11.5527L81.7998 11.4502ZM77.9033 13.8086V14.2188C78.1865 15.3809 78.4258 15.9619 78.6211 15.9619L78.7236 15.7568C78.3232 14.6826 78.0498 14.0332 77.9033 13.8086ZM82.6201 14.3213C84.2607 14.3213 85.6621 15.6201 86.8242 18.2178L86.6191 18.3203H83.543C83.2988 18.3203 83.0938 18.2178 82.9277 18.0127L83.0303 17.5C82.7373 16.9824 82.5322 15.957 82.415 14.4238L82.6201 14.3213ZM72.3662 16.7822C72.6396 17.085 72.7764 17.3242 72.7764 17.5H73.084V17.3975L72.5713 16.5771C72.4346 16.5967 72.3662 16.665 72.3662 16.7822ZM74.0068 16.7822L74.2119 16.8848H74.3145C74.4512 16.8848 74.5195 16.8164 74.5195 16.6797V16.5771H74.2119C74.0752 16.5967 74.0068 16.665 74.0068 16.7822ZM79.749 16.5771V16.6797C79.7686 16.8164 79.8369 16.8848 79.9541 16.8848H80.0566V16.5771H79.749ZM88.6699 17.0898H89.1826C89.3193 17.0898 89.3877 17.0215 89.3877 16.8848C89.1826 16.8164 89.0801 16.748 89.0801 16.6797C88.8555 16.748 88.7188 16.8848 88.6699 17.0898ZM87.7471 16.9873V17.2949H88.1572C88.2939 17.2949 88.3623 17.2266 88.3623 17.0898C88.3135 17.0898 88.1084 17.0557 87.7471 16.9873ZM64.3682 21.8066C64.5732 22.2168 64.6758 22.4561 64.6758 22.5244C64.6758 23.5986 64.2656 24.624 63.4453 25.6006H63.2402L63.1377 25.3955V22.7295C63.2256 22.1143 63.6357 21.8066 64.3682 21.8066ZM75.8525 22.3193H81.082C81.2188 22.3389 81.2871 22.4072 81.2871 22.5244V22.7295C80.125 23.8916 79.5439 24.6777 79.5439 25.0879C79.5439 25.2637 79.4414 25.7764 79.2363 26.626C79.3047 26.9971 79.3389 27.3047 79.3389 27.5488L78.416 29.292C78.2988 29.3604 78.1621 29.3945 78.0059 29.3945H66.7266C66.5898 29.3945 66.5215 29.3262 66.5215 29.1895C66.6582 28.4766 66.7266 28.1006 66.7266 28.0615C66.6582 27.7881 66.624 27.5488 66.624 27.3438C66.8193 27.1387 67.0928 27.002 67.4443 26.9336L68.1621 26.1133L68.5723 26.3184V26.2158C68.5723 25.874 68.5039 25.7031 68.3672 25.7031C68.6211 24.6777 69.0312 24.165 69.5977 24.165C69.7051 23.8916 70.1494 23.6182 70.9307 23.3447C71.4287 23.3936 71.7705 23.4961 71.9561 23.6523H72.1611L72.5713 23.2422H72.6738C72.7422 23.2422 72.7764 23.2764 72.7764 23.3447C73.001 23.2568 73.2061 23.1201 73.3916 22.9346L73.8018 23.1396C74.0264 23.0029 74.1973 22.9346 74.3145 22.9346L74.8271 23.0371C75.1299 22.5586 75.4717 22.3193 75.8525 22.3193ZM82.415 22.3193H89.1826L89.7979 22.4219C89.915 22.3535 90.0518 22.3193 90.208 22.3193C91.0088 22.3193 91.5898 22.4902 91.9512 22.832V22.7295C91.8828 22.5928 91.8486 22.4902 91.8486 22.4219L92.0537 22.3193H92.5664C93.1035 22.3193 93.5137 22.4902 93.7969 22.832C93.6602 22.8516 93.5918 22.9199 93.5918 23.0371V23.1396L93.6943 23.3447C93.5088 23.3936 93.2695 23.8379 92.9766 24.6777C92.6152 25.2246 92.2051 26.25 91.7461 27.7539C91.6777 27.7539 91.6436 27.7881 91.6436 27.8564C91.917 28.3838 92.0537 28.7256 92.0537 28.8818C91.9561 29.2236 91.6143 29.3945 91.0283 29.3945H79.8516C79.8516 29.3262 79.8174 29.2236 79.749 29.0869C80.0225 29.0869 80.1592 28.9844 80.1592 28.7793V28.5742C80.1592 28.3496 80.0566 28.1104 79.8516 27.8564V27.7539C81.0137 26.2988 81.5947 25.4443 81.5947 25.1904C81.5947 24.7217 81.4922 24.209 81.2871 23.6523C81.5312 22.7637 81.9072 22.3193 82.415 22.3193ZM94.207 22.3193L94.7197 22.4219V22.9346H94.5146C94.4268 22.9346 94.2559 22.7637 94.002 22.4219L94.207 22.3193ZM89.9004 23.0371V23.4473C89.9199 23.584 89.9883 23.6523 90.1055 23.6523V23.5498L90.0029 23.0371H89.9004ZM92.2588 23.1396L92.1562 23.3447C92.1758 23.4814 92.2441 23.5498 92.3613 23.5498H92.5664V23.4473C92.5664 23.3496 92.4639 23.2471 92.2588 23.1396ZM64.8809 23.3447H65.1885C65.1885 24.2334 65.4277 24.6777 65.9062 24.6777C66.1797 24.6777 66.3848 24.8145 66.5215 25.0879V25.3955C66.5215 26.0303 65.9746 27.0557 64.8809 28.4717C64.8809 29.0869 64.6416 29.3945 64.1631 29.3945H63.4453C63.3477 29.3945 63.2451 29.292 63.1377 29.0869V26.8311C63.1377 26.5186 63.5137 25.9717 64.2656 25.1904C64.6758 24.5068 64.8809 23.8916 64.8809 23.3447ZM94.7197 23.5498L94.8223 23.7549L94.6172 24.165C94.7539 24.3896 94.8223 24.5947 94.8223 24.7803V28.7793C94.8223 29.1895 94.6172 29.3945 94.207 29.3945H92.4639L92.2588 29.292L92.3613 28.7793V28.5742C92.1562 28.3203 92.0537 28.0811 92.0537 27.8564L92.9766 25.1904C93.1133 25.1709 93.4209 24.6582 93.8994 23.6523C94.3779 23.6523 94.6514 23.6182 94.7197 23.5498ZM80.7744 23.8574H80.9795L81.2871 24.9854C80.6523 26.0693 80.1055 26.7871 79.6465 27.1387C79.5781 27.002 79.5439 26.8994 79.5439 26.8311C79.749 25.376 80.0908 24.4189 80.5693 23.96L80.7744 23.8574ZM90.4131 25.8057V25.9082C90.4131 26.0059 90.5156 26.1084 90.7207 26.2158H90.8232V26.1133C90.8232 26.0156 90.7207 25.9131 90.5156 25.8057H90.4131ZM68.6748 27.1387C68.6748 27.207 68.709 27.3096 68.7773 27.4463L68.6748 28.0615H68.8799V27.1387H68.6748ZM79.6465 28.0615L79.9541 28.5742C79.7881 29.0039 79.5146 29.2773 79.1338 29.3945C79.1338 29.2578 79.0654 29.1895 78.9287 29.1895C79.1045 28.5645 79.3438 28.1885 79.6465 28.0615ZM66.0088 28.2666H66.2139V28.5742L66.1113 29.292H66.0088C65.8721 29.292 65.8037 29.2236 65.8037 29.0869C65.9404 28.833 66.0088 28.5596 66.0088 28.2666Z" fill="#FAFAFA"/>
</svg>
